{
	"asset":{
		"generator":"Khronos glTF Blender I/O v4.2.70",
		"version":"2.0"
	},
	"scene":0,
	"scenes":[
		{
			"name":"Scene",
			"nodes":[
				0,
				1,
				2,
				3,
				4
			]
		}
	],
	"nodes":[
		{
			"mesh":0,
			"name":"Body",
			"scale":[
				0.49510082602500916,
				0.30922332406044006,
				0.4971827268600464
			],
			"translation":[
				-0.005452156066894531,
				0.08981342613697052,
				0.0014745593070983887
			]
		},
		{
			"mesh":1,
			"name":"rear_right_wheel",
			"rotation":[
				0.7071068286895752,
				0,
				0,
				0.7071068286895752
			],
			"translation":[
				-0.2986369729042053,
				-0.02245335839688778,
				0.26963138580322266
			]
		},
		{
			"mesh":2,
			"name":"front_right_wheel",
			"rotation":[
				0.7071068286895752,
				0,
				0,
				0.7071068286895752
			],
			"translation":[
				0.3013630509376526,
				-0.02245335839688778,
				0.26963138580322266
			]
		},
		{
			"mesh":3,
			"name":"rear_left_wheel",
			"rotation":[
				0,
				-0.7071068286895752,
				0.7071068286895752,
				3.090862321641907e-08
			],
			"translation":[
				-0.2986369729042053,
				-0.02245335839688778,
				-0.27036863565444946
			]
		},
		{
			"mesh":4,
			"name":"front_left_wheel",
			"rotation":[
				0,
				-0.7071068286895752,
				0.7071068286895752,
				3.090862321641907e-08
			],
			"translation":[
				0.3013630509376526,
				-0.02245335839688778,
				-0.27036863565444946
			]
		}
	],
	"meshes":[
		{
			"name":"Body",
			"primitives":[
				{
					"attributes":{
						"POSITION":0,
						"NORMAL":1,
						"TEXCOORD_0":2
					},
					"indices":3
				}
			]
		},
		{
			"name":"rear_right_wheel",
			"primitives":[
				{
					"attributes":{
						"_TEST_ATTR":4,
						"__IS_DEFORMABLE":5,
						"__IS_ROTATING_SOURCE":6,
						"POSITION":7,
						"NORMAL":8,
						"TEXCOORD_0":9,
						"COLOR_0":10
					},
					"indices":11
				}
			]
		},
		{
			"name":"front_right_wheel",
			"primitives":[
				{
					"attributes":{
						"_TEST_ATTR":12,
						"__IS_DEFORMABLE":13,
						"__IS_ROTATING_SOURCE":14,
						"POSITION":15,
						"NORMAL":16,
						"TEXCOORD_0":17,
						"COLOR_0":18
					},
					"indices":11
				}
			]
		},
		{
			"name":"rear_left_wheel",
			"primitives":[
				{
					"attributes":{
						"_TEST_ATTR":19,
						"__IS_DEFORMABLE":20,
						"__IS_ROTATING_SOURCE":21,
						"POSITION":22,
						"NORMAL":23,
						"TEXCOORD_0":24,
						"COLOR_0":25
					},
					"indices":11
				}
			]
		},
		{
			"name":"front_left_wheel",
			"primitives":[
				{
					"attributes":{
						"_TEST_ATTR":26,
						"__IS_DEFORMABLE":27,
						"__IS_ROTATING_SOURCE":28,
						"POSITION":29,
						"NORMAL":30,
						"TEXCOORD_0":31,
						"COLOR_0":32
					},
					"indices":11
				}
			]
		}
	],
	"accessors":[
		{
			"bufferView":0,
			"componentType":5126,
			"count":1536,
			"max":[
				0.6866626739501953,
				0.4239189624786377,
				0.43469929695129395
			],
			"min":[
				-0.6866626739501953,
				-0.4239189624786377,
				-0.43469929695129395
			],
			"type":"VEC3"
		},
		{
			"bufferView":1,
			"componentType":5126,
			"count":1536,
			"type":"VEC3"
		},
		{
			"bufferView":2,
			"componentType":5126,
			"count":1536,
			"type":"VEC2"
		},
		{
			"bufferView":3,
			"componentType":5123,
			"count":2292,
			"type":"SCALAR"
		},
		{
			"bufferView":4,
			"componentType":5126,
			"count":2799,
			"type":"SCALAR"
		},
		{
			"bufferView":5,
			"componentType":5126,
			"count":2799,
			"type":"SCALAR"
		},
		{
			"bufferView":6,
			"componentType":5126,
			"count":2799,
			"type":"SCALAR"
		},
		{
			"bufferView":7,
			"componentType":5126,
			"count":2799,
			"max":[
				0.10000000149011612,
				0.02500000223517418,
				0.10000000149011612
			],
			"min":[
				-0.10000000149011612,
				-0.11500000208616257,
				-0.10000000149011612
			],
			"type":"VEC3"
		},
		{
			"bufferView":8,
			"componentType":5126,
			"count":2799,
			"type":"VEC3"
		},
		{
			"bufferView":9,
			"componentType":5126,
			"count":2799,
			"type":"VEC2"
		},
		{
			"bufferView":10,
			"componentType":5123,
			"count":2799,
			"normalized":true,
			"type":"VEC4"
		},
		{
			"bufferView":11,
			"componentType":5123,
			"count":5244,
			"type":"SCALAR"
		},
		{
			"bufferView":12,
			"componentType":5126,
			"count":2799,
			"type":"SCALAR"
		},
		{
			"bufferView":13,
			"componentType":5126,
			"count":2799,
			"type":"SCALAR"
		},
		{
			"bufferView":14,
			"componentType":5126,
			"count":2799,
			"type":"SCALAR"
		},
		{
			"bufferView":15,
			"componentType":5126,
			"count":2799,
			"max":[
				0.10000000149011612,
				0.02500000223517418,
				0.10000000149011612
			],
			"min":[
				-0.10000000149011612,
				-0.11500000208616257,
				-0.10000000149011612
			],
			"type":"VEC3"
		},
		{
			"bufferView":16,
			"componentType":5126,
			"count":2799,
			"type":"VEC3"
		},
		{
			"bufferView":17,
			"componentType":5126,
			"count":2799,
			"type":"VEC2"
		},
		{
			"bufferView":18,
			"componentType":5123,
			"count":2799,
			"normalized":true,
			"type":"VEC4"
		},
		{
			"bufferView":19,
			"componentType":5126,
			"count":2799,
			"type":"SCALAR"
		},
		{
			"bufferView":20,
			"componentType":5126,
			"count":2799,
			"type":"SCALAR"
		},
		{
			"bufferView":21,
			"componentType":5126,
			"count":2799,
			"type":"SCALAR"
		},
		{
			"bufferView":22,
			"componentType":5126,
			"count":2799,
			"max":[
				0.10000000149011612,
				0.02500000223517418,
				0.10000000149011612
			],
			"min":[
				-0.10000000149011612,
				-0.11500000208616257,
				-0.10000000149011612
			],
			"type":"VEC3"
		},
		{
			"bufferView":23,
			"componentType":5126,
			"count":2799,
			"type":"VEC3"
		},
		{
			"bufferView":24,
			"componentType":5126,
			"count":2799,
			"type":"VEC2"
		},
		{
			"bufferView":25,
			"componentType":5123,
			"count":2799,
			"normalized":true,
			"type":"VEC4"
		},
		{
			"bufferView":26,
			"componentType":5126,
			"count":2799,
			"type":"SCALAR"
		},
		{
			"bufferView":27,
			"componentType":5126,
			"count":2799,
			"type":"SCALAR"
		},
		{
			"bufferView":28,
			"componentType":5126,
			"count":2799,
			"type":"SCALAR"
		},
		{
			"bufferView":29,
			"componentType":5126,
			"count":2799,
			"max":[
				0.10000000149011612,
				0.02500000223517418,
				0.10000000149011612
			],
			"min":[
				-0.10000000149011612,
				-0.11500000208616257,
				-0.10000000149011612
			],
			"type":"VEC3"
		},
		{
			"bufferView":30,
			"componentType":5126,
			"count":2799,
			"type":"VEC3"
		},
		{
			"bufferView":31,
			"componentType":5126,
			"count":2799,
			"type":"VEC2"
		},
		{
			"bufferView":32,
			"componentType":5123,
			"count":2799,
			"normalized":true,
			"type":"VEC4"
		}
	],
	"bufferViews":[
		{
			"buffer":0,
			"byteLength":18432,
			"byteOffset":0,
			"target":34962
		},
		{
			"buffer":0,
			"byteLength":18432,
			"byteOffset":18432,
			"target":34962
		},
		{
			"buffer":0,
			"byteLength":12288,
			"byteOffset":36864,
			"target":34962
		},
		{
			"buffer":0,
			"byteLength":4584,
			"byteOffset":49152,
			"target":34963
		},
		{
			"buffer":0,
			"byteLength":11196,
			"byteOffset":53736,
			"target":34962
		},
		{
			"buffer":0,
			"byteLength":11196,
			"byteOffset":64932,
			"target":34962
		},
		{
			"buffer":0,
			"byteLength":11196,
			"byteOffset":76128,
			"target":34962
		},
		{
			"buffer":0,
			"byteLength":33588,
			"byteOffset":87324,
			"target":34962
		},
		{
			"buffer":0,
			"byteLength":33588,
			"byteOffset":120912,
			"target":34962
		},
		{
			"buffer":0,
			"byteLength":22392,
			"byteOffset":154500,
			"target":34962
		},
		{
			"buffer":0,
			"byteLength":22392,
			"byteOffset":176892,
			"target":34962
		},
		{
			"buffer":0,
			"byteLength":10488,
			"byteOffset":199284,
			"target":34963
		},
		{
			"buffer":0,
			"byteLength":11196,
			"byteOffset":209772,
			"target":34962
		},
		{
			"buffer":0,
			"byteLength":11196,
			"byteOffset":220968,
			"target":34962
		},
		{
			"buffer":0,
			"byteLength":11196,
			"byteOffset":232164,
			"target":34962
		},
		{
			"buffer":0,
			"byteLength":33588,
			"byteOffset":243360,
			"target":34962
		},
		{
			"buffer":0,
			"byteLength":33588,
			"byteOffset":276948,
			"target":34962
		},
		{
			"buffer":0,
			"byteLength":22392,
			"byteOffset":310536,
			"target":34962
		},
		{
			"buffer":0,
			"byteLength":22392,
			"byteOffset":332928,
			"target":34962
		},
		{
			"buffer":0,
			"byteLength":11196,
			"byteOffset":355320,
			"target":34962
		},
		{
			"buffer":0,
			"byteLength":11196,
			"byteOffset":366516,
			"target":34962
		},
		{
			"buffer":0,
			"byteLength":11196,
			"byteOffset":377712,
			"target":34962
		},
		{
			"buffer":0,
			"byteLength":33588,
			"byteOffset":388908,
			"target":34962
		},
		{
			"buffer":0,
			"byteLength":33588,
			"byteOffset":422496,
			"target":34962
		},
		{
			"buffer":0,
			"byteLength":22392,
			"byteOffset":456084,
			"target":34962
		},
		{
			"buffer":0,
			"byteLength":22392,
			"byteOffset":478476,
			"target":34962
		},
		{
			"buffer":0,
			"byteLength":11196,
			"byteOffset":500868,
			"target":34962
		},
		{
			"buffer":0,
			"byteLength":11196,
			"byteOffset":512064,
			"target":34962
		},
		{
			"buffer":0,
			"byteLength":11196,
			"byteOffset":523260,
			"target":34962
		},
		{
			"buffer":0,
			"byteLength":33588,
			"byteOffset":534456,
			"target":34962
		},
		{
			"buffer":0,
			"byteLength":33588,
			"byteOffset":568044,
			"target":34962
		},
		{
			"buffer":0,
			"byteLength":22392,
			"byteOffset":601632,
			"target":34962
		},
		{
			"buffer":0,
			"byteLength":22392,
			"byteOffset":624024,
			"target":34962
		}
	],
	"buffers":[
		{
			"byteLength":646416,
			"uri":"robot_simple.bin"
		}
	]
}
